HIERARCHY
ROOT Hips
{
	OFFSET 0.00000 0.00000 0.00000
	CHANNELS 6 Xposition Yposition Zposition Zrotation Yrotation Xrotation 
	JOINT LHipJoint
	{
		OFFSET 0 0 0
		CHANNELS 3 Zrotation Yrotation Xrotation
		JOINT LeftUpLeg
		{
			OFFSET 1.60223 -1.58443 0.78595
			CHANNELS 3 Zrotation Yrotation Xrotation
			JOINT LeftLeg
			{
				OFFSET 2.21690 -6.09089 0.00000
				CHANNELS 3 Zrotation Yrotation Xrotation
				JOINT LeftFoot
				{
					OFFSET 2.34805 -6.45122 0.00000
					CHANNELS 3 Zrotation Yrotation Xrotation
					JOINT LeftToeBase
					{
						OFFSET 0.35452 -0.97402 1.38549
						CHANNELS 3 Zrotation Yrotation Xrotation
						End Site
						{
							OFFSET 0.00000 -0.00000 0.82816
						}
					}
				}
			}
		}
	}
	JOINT RHipJoint
	{
		OFFSET 0 0 0
		CHANNELS 3 Zrotation Yrotation Xrotation
		JOINT RightUpLeg
		{
			OFFSET -1.56524 -1.58443 0.78595
			CHANNELS 3 Zrotation Yrotation Xrotation
			JOINT RightLeg
			{
				OFFSET -2.15558 -5.92241 0.00000
				CHANNELS 3 Zrotation Yrotation Xrotation
				JOINT RightFoot
				{
					OFFSET -2.35077 -6.45870 0.00000
					CHANNELS 3 Zrotation Yrotation Xrotation
					JOINT RightToeBase
					{
						OFFSET -0.26910 -0.73935 1.33295
						CHANNELS 3 Zrotation Yrotation Xrotation
						End Site
						{
							OFFSET -0.00000 -0.00000 0.75962
						}
					}
				}
			}
		}
	}
	JOINT LowerBack
	{
		OFFSET 0 0 0
		CHANNELS 3 Zrotation Yrotation Xrotation
		JOINT Spine
		{
			OFFSET -0.05489 1.97104 -0.02993
			CHANNELS 3 Zrotation Yrotation Xrotation
			JOINT Spine1
			{
				OFFSET -0.00702 1.94230 0.13626
				CHANNELS 3 Zrotation Yrotation Xrotation
				JOINT Neck
				{
					OFFSET 0 0 0
					CHANNELS 3 Zrotation Yrotation Xrotation
					JOINT Neck1
					{
						OFFSET -0.07858 1.62869 -0.02510
						CHANNELS 3 Zrotation Yrotation Xrotation
						JOINT Head
						{
							OFFSET 0.13978 1.59213 -0.29859
							CHANNELS 3 Zrotation Yrotation Xrotation
							End Site
							{
								OFFSET 0.05353 1.64420 -0.10000
							}
						}
					}
				}
				JOINT LeftShoulder
				{
					OFFSET 0 0 0
					CHANNELS 3 Zrotation Yrotation Xrotation
					JOINT LeftArm
					{
						OFFSET 3.48263 1.15278 0.52941
						CHANNELS 3 Zrotation Yrotation Xrotation
						JOINT LeftForeArm
						{
							OFFSET 4.59207 -0.00000 -0.00000
							CHANNELS 3 Zrotation Yrotation Xrotation
							JOINT LeftHand
							{
								OFFSET 2.98109 -0.00000 -0.00000
								CHANNELS 3 Zrotation Yrotation Xrotation
								JOINT LeftFingerBase
								{
									OFFSET 0 0 0
									CHANNELS 3 Zrotation Yrotation Xrotation
									JOINT LeftHandIndex1
									{
										OFFSET 0.48020 -0.00000 -0.00000
										CHANNELS 3 Zrotation Yrotation Xrotation
										End Site
										{
											OFFSET 0.38715 -0.00000 -0.00000
										}
									}
								}
								JOINT LThumb
								{
									OFFSET 0 0 0
									CHANNELS 3 Zrotation Yrotation Xrotation
									End Site
									{
										OFFSET 0.39306 -0.00000 0.39306
									}
								}
							}
						}
					}
				}
				JOINT RightShoulder
				{
					OFFSET 0 0 0
					CHANNELS 3 Zrotation Yrotation Xrotation
					JOINT RightArm
					{
						OFFSET -3.52496 1.12722 0.24548
						CHANNELS 3 Zrotation Yrotation Xrotation
						JOINT RightForeArm
						{
							OFFSET -4.76508 -0.00000 -0.00000
							CHANNELS 3 Zrotation Yrotation Xrotation
							JOINT RightHand
							{
								OFFSET -2.78902 -0.00000 -0.00000
								CHANNELS 3 Zrotation Yrotation Xrotation
								JOINT RightFingerBase
								{
									OFFSET 0 0 0
									CHANNELS 3 Zrotation Yrotation Xrotation
									JOINT RightHandIndex1
									{
										OFFSET -0.72130 -0.00000 -0.00000
										CHANNELS 3 Zrotation Yrotation Xrotation
										End Site
										{
											OFFSET -0.58153 -0.00000 -0.00000
										}
									}
								}
								JOINT RThumb
								{
									OFFSET 0 0 0
									CHANNELS 3 Zrotation Yrotation Xrotation
									End Site
									{
										OFFSET -0.59041 -0.00000 0.59041
									}
								}
							}
						}
					}
				}
			}
		}
	}
}
MOTION
Frames: 12
Frame Time: 0.0127389
0.00 0.00 0.00 0 0 0 0 0 0 -21 0 0 0 0 0 0 0 0 0 0 0 0 0 0 21 0 0 0 0 0 0 0 0 0 0 0 0 0 0 0 0 0 0 0 0 0 0 -16 0 0 21 0 0 11 0 0 0 -8 0 0 0 0 0 0 0 0 0 0 0 0 0 0 0 0 0 0 0 0 8 0 0 0 0 0 0 0 0 0 0 0 0 0 0 0 0 0
0.00 0.00 0.00 3.2652 -61.3071 3.3061 0.0000 0.0000 0.0000 -17.8085 -12.4919 -16.1674 3.2731 11.1245 32.7011 0.5707 -18.8233 -17.8071 2.0162 -8.8997 -25.4820 0.0000 0.0000 0.0000 19.6260 -1.4066 -4.8137 -1.0302 -6.4562 18.1138 -1.8785 -17.1178 -36.7023 -0.1569 2.5521 -7.0340 -2.4295 4.5973 -4.6990 -1.7789 6.1213 -4.1562 -0.2891 3.0696 -1.7163 2.4810 15.3818 2.3622 0.5797 20.6045 -1.9084 -0.4402 10.2705 -0.7790 -0.0000 -0.0000 0.0000 -97.9279 7.6315 -2.3186 21.3677 -32.2551 -6.2450 -0.0000 -0.0000 14.4336 22.7440 38.9670 14.7689 -7.1250 0.0000 -0.0000 -18.7433 70.4210 -11.5115 -0.0000 -0.0000 0.0000 99.9042 -4.3926 -14.9963 -15.8697 25.3436 -3.5900 0.0000 0.0000 6.1441 12.8878 39.4539 8.2727 7.1250 -0.0000 -0.0000 24.1627 7.2469 29.6203
0.00 0.00 0.00 -29.5979 -88.3649 33.9549 0.0000 0.0000 0.0000 -17.2219 -6.9808 -20.3032 6.6492 15.0292 47.5347 2.1572 -0.3798 -27.7048 2.5122 -9.8600 -28.5246 0.0000 0.0000 0.0000 25.3718 -1.2039 -13.2302 -2.1015 -9.0744 26.0282 -2.5276 -1.1195 -30.5108 -0.4145 4.1324 -11.4495 0.6198 0.4219 -0.5720 -1.4790 0.4701 -3.7980 -1.8801 0.1637 -3.5660 -9.9150 -3.2211 -2.8195 14.1810 -5.0119 7.1670 5.7892 -2.3397 3.1749 -0.0000 0.0000 0.0000 -97.9082 9.3524 -0.3563 22.8857 -33.9635 -7.0743 -0.0000 -0.0000 13.0454 33.7924 38.6106 22.6667 -7.1250 0.0000 -0.0000 -1.9741 73.8306 -1.3464 -0.0000 0.0000 0.0000 102.1924 -8.7256 0.7164 -29.7503 40.6784 -11.2465 0.0000 -0.0000 -14.1498 5.5581 42.8954 3.7896 7.1250 -0.0000 -0.0000 20.7395 10.6697 25.7998
0.00 0.00 0.00 74.0437 -87.5395 -72.9476 0.0000 0.0000 0.0000 -25.8089 -9.3572 -22.0621 4.7524 13.0994 39.7416 1.5033 -0.5929 -23.0119 0.6169 -5.0268 -13.9851 0.0000 0.0000 0.0000 17.1106 -0.1037 -3.1050 -4.8661 -13.2314 40.2411 -0.6349 -8.7121 -20.6514 -1.2979 7.2179 -20.3624 -0.0447 3.5606 1.2243 -0.7163 4.6793 -4.1128 -0.9655 2.2909 -4.8738 -12.3460 -5.5599 -2.0645 12.7117 -8.1344 8.6668 5.5628 -4.0023 3.9273 0.0000 0.0000 0.0000 -95.4574 7.1376 -1.3981 25.9574 -37.1666 -8.8619 -0.0000 -0.0000 12.9981 27.5346 41.9941 19.2288 -7.1250 0.0000 -0.0000 -17.1237 74.8482 -12.1346 0.0000 0.0000 0.0000 99.1903 -6.3528 29.8631 -29.5675 40.5198 -11.1275 0.0000 -0.0000 -5.3353 10.7133 45.2471 7.6521 7.1250 -0.0000 -0.0000 23.0998 12.6949 29.8296
0.00 0.00 0.00 55.4288 -78.4982 -55.4868 0.0000 0.0000 0.0000 -35.9378 3.5067 -9.8286 2.3830 9.6219 27.7610 1.1373 -14.4771 -20.2181 0.4569 -4.3361 -12.0242 0.0000 0.0000 0.0000 7.7103 6.9170 -31.1013 -5.2990 -13.7128 42.0991 -1.3872 -6.6378 -25.5341 -1.1478 6.8028 -19.1325 -6.5820 -0.7491 3.2747 -3.3404 -1.7411 -4.4520 0.3474 -0.6872 -6.4236 -9.6962 -3.5231 -2.6299 11.9418 -5.8311 12.6142 5.0244 -2.8012 4.8020 0.0000 0.0000 0.0000 -83.6537 -24.8653 3.5884 18.4769 -28.7634 -4.7765 -0.0000 -0.0000 21.4779 23.7279 43.2810 16.7700 -7.1250 0.0000 -0.0000 -25.1334 74.5591 -17.7980 0.0000 0.0000 0.0000 96.1797 -7.4674 16.7093 -42.3761 49.4163 -20.2257 0.0000 -0.0000 -13.7824 3.1533 46.3075 2.2811 7.1250 -0.0000 -0.0000 19.7882 14.0512 25.3390
0.00 0.00 0.00 15.5826 -87.7910 -14.8853 0.0000 0.0000 0.0000 -25.6495 0.0554 -4.8341 4.8620 13.2266 40.2229 1.8203 -4.7087 -24.4456 3.0395 -10.7588 -31.4706 0.0000 0.0000 0.0000 23.1394 8.7623 -19.6222 -2.7079 -10.2064 29.6478 -0.7815 -3.7299 -18.4575 -0.0040 0.4061 -1.1159 -3.0703 -2.2446 -2.0434 -0.5895 -3.3718 -7.9195 1.2426 -1.6098 -6.9797 -6.1036 -0.0243 -2.7545 11.8732 -1.7225 15.8999 4.6626 -0.6295 5.3217 0.0000 0.0000 0.0000 -70.8328 -45.8589 -0.1055 21.0772 -31.9183 -6.0907 -0.0000 -0.0000 4.6139 16.8342 42.0244 11.4505 -7.1250 0.0000 -0.0000 -30.9794 71.0849 -19.8514 0.0000 0.0000 0.0000 97.0030 -8.5307 15.8929 -76.0956 59.2567 -47.9885 0.0000 -0.0000 -18.6285 -1.9687 43.6641 -1.3595 7.1250 -0.0000 -0.0000 17.2557 12.0057 21.3462
0.00 0.00 0.00 -54.4149 -86.4874 55.6303 0.0000 0.0000 0.0000 -18.4069 0.2696 -17.0181 10.1296 17.4821 59.9207 0.4913 -6.6554 -12.6263 3.5913 -11.5957 -34.3162 0.0000 0.0000 0.0000 27.9865 1.5087 -19.6531 -2.3967 -9.6476 27.8429 -0.9277 2.8384 -17.4678 -0.0102 -0.6529 1.7941 0.1246 -2.1315 -2.1474 0.0411 -3.1609 -8.6114 0.1382 -1.6986 -7.8015 -5.9207 -0.1915 -3.1540 12.0265 -2.0103 16.1443 4.6705 -0.7371 5.4946 -0.0000 -0.0000 0.0000 -71.2070 -45.4255 6.7287 26.0672 -37.2750 -8.9283 -0.0000 0.0000 -1.6897 14.4871 40.2044 9.4691 -7.1250 0.0000 -0.0000 -30.4747 68.8379 -18.0233 -0.0000 -0.0000 0.0000 98.7594 -9.9586 12.5547 -92.6855 59.9727 -62.3255 0.0000 -0.0000 -20.8485 -10.0627 44.1066 -7.0409 7.1250 -0.0000 -0.0000 13.4629 13.5114 16.6400
0.00 0.00 0.00 -74.1795 -87.2751 74.6212 0.0000 0.0000 0.0000 -18.2443 -6.4916 -20.1560 9.1898 16.9283 56.7441 1.7871 -4.1316 -24.2986 2.8985 -10.5289 -30.7071 0.0000 0.0000 0.0000 27.9781 3.4092 -15.3754 -2.3995 -9.6529 27.8599 -1.0456 0.5410 -19.1592 -0.0720 -1.7317 4.7646 -0.1357 -2.1882 -1.1070 0.2377 -3.1727 -7.8502 0.5108 -1.6538 -7.5494 -5.9869 -0.0187 -3.8961 12.2488 -1.6454 15.2879 4.7603 -0.5210 5.3275 0.0000 0.0000 0.0000 -72.0221 -37.3194 14.3162 46.9958 -51.7096 -23.7951 -0.0000 0.0000 -6.2605 12.3882 41.1035 8.2168 -7.1250 0.0000 -0.0000 -34.2516 68.8953 -20.4816 0.0000 0.0000 0.0000 95.4912 -8.5625 8.9946 -111.9789 58.0936 -78.9124 0.0000 -0.0000 -11.0316 -10.2160 51.6123 -8.0403 7.1250 -0.0000 -0.0000 14.6302 20.6901 19.3435
0.00 0.00 0.00 -55.6509 -88.0524 56.2199 0.0000 0.0000 0.0000 -19.9203 -3.5461 -16.0615 6.9676 15.3045 48.7517 1.6732 -9.2584 -23.1910 2.1800 -9.2314 -26.5218 0.0000 0.0000 0.0000 25.9238 3.9937 -14.4135 -2.5551 -9.9373 28.7740 -1.1478 -0.9827 -20.6241 -0.0494 -1.4339 3.9436 -2.1829 -1.7938 -1.9417 0.4127 -2.6652 -7.6245 1.7637 -1.2741 -6.7315 -7.4285 -1.3060 -3.1031 13.5618 -3.7989 16.7014 5.3416 -1.6191 5.8730 0.0000 -0.0000 0.0000 -69.6248 -29.1754 20.1020 79.5682 -59.5848 -50.9784 -0.0000 0.0000 -6.3289 8.1996 45.8314 5.9010 -7.1250 0.0000 -0.0000 -47.9018 70.8661 -31.7571 0.0000 -0.0000 0.0000 84.8668 -2.7631 11.2795 -126.3433 54.3679 -90.8790 0.0000 0.0000 1.3218 -9.0718 50.5974 -7.0335 7.1250 -0.0000 -0.0000 14.9275 19.5446 19.5882
0.00 0.00 0.00 -19.0271 -86.4520 19.9029 0.0000 0.0000 0.0000 -21.4847 -5.6063 -13.7766 5.9495 14.3792 44.7788 1.8747 -8.8776 -24.5536 1.9802 -8.8247 -25.2483 0.0000 0.0000 0.0000 24.6058 5.5355 -15.0128 -2.8005 -10.3648 30.1664 -1.2297 -3.3973 -22.4206 -0.0057 -0.4859 1.3352 -3.0381 -1.8964 -0.8187 0.5256 -2.8467 -7.7669 2.4181 -1.2843 -7.4882 -8.0844 -2.2590 -2.4263 13.2773 -4.9567 15.9660 5.2795 -2.2662 5.6690 0.0000 0.0000 0.0000 -70.5681 -24.1943 23.2994 99.8640 -59.6291 -68.5318 -0.0000 0.0000 -3.9425 14.0015 47.1955 10.3674 -7.1250 0.0000 -0.0000 -45.9948 73.7859 -33.0015 0.0000 0.0000 0.0000 82.9256 -1.6800 14.3268 -127.8355 53.8320 -92.0877 0.0000 -0.0000 -3.2114 -4.2508 48.0802 -3.1655 7.1250 -0.0000 -0.0000 16.6522 16.4724 21.4546
0.00 0.00 0.00 -5.6803 -84.4898 6.3828 0.0000 0.0000 0.0000 -23.2293 -5.0456 -12.9014 5.1272 13.5256 41.3693 1.9375 -9.8080 -24.9883 1.4497 -7.6110 -21.5388 0.0000 0.0000 0.0000 22.5315 5.1491 -17.6399 -3.4011 -11.3177 33.3589 -1.2850 -3.8590 -23.1159 -0.0043 0.4248 -1.1673 -2.6004 -1.3361 2.0912 0.0692 -2.1500 -7.5462 1.7495 -0.9371 -9.0278 -9.0820 -3.8986 -1.3359 13.1057 -6.9560 14.1749 5.2599 -3.3495 5.1920 -0.0000 -0.0000 0.0000 -74.3229 -15.7630 28.9440 121.8505 -55.7963 -87.1940 -0.0000 -0.0000 10.9841 18.2302 45.7196 13.2682 -7.1250 0.0000 -0.0000 -37.7165 74.3884 -27.0712 -0.0000 -0.0000 0.0000 84.2075 -3.5479 14.1317 -131.4573 52.3906 -94.9850 0.0000 0.0000 4.6026 -8.7309 45.7441 -6.2769 7.1250 -0.0000 -0.0000 14.3166 14.8705 17.9959
0.00 0.00 0.00 21.6136 -80.0828 -23.0503 0.0000 0.0000 0.0000 -29.9975 -6.3846 -12.7162 5.0302 13.4177 40.9531 1.8184 -9.7152 -24.1996 0.4496 -4.3019 -11.9277 0.0000 0.0000 0.0000 14.3674 5.2304 -25.7558 -7.1737 -15.4764 49.5282 -1.7316 -2.6837 -25.9463 -0.1597 2.5746 -7.0967 -3.7096 0.4414 8.2636 -1.6675 -0.1064 -5.3893 0.3173 0.1151 -10.4329 -11.1605 -7.0697 0.6599 12.6878 -10.7680 10.0522 5.2680 -5.3898 4.1570 -0.0000 -0.0000 0.0000 -85.3202 2.8402 40.8583 134.3911 -51.0633 -97.2886 -0.0000 -0.0000 37.1404 36.6911 47.1571 28.6499 -7.1250 0.0000 -0.0000 -14.9568 83.1252 -13.0829 -0.0000 -0.0000 0.0000 96.7309 -16.7825 10.3504 -120.3645 56.2120 -85.9620 0.0000 -0.0000 -2.3832 -27.7295 52.0563 -22.5164 7.1250 -0.0000 -0.0000 7.4762 25.0350 9.9966
